<?xml version="1.0" encoding="UTF-8" standalone="no"?>
<svg xmlns="http://www.w3.org/2000/svg" viewBox="0 0 2748.000000 623.000000" width="2748pt" version="1.0" preserveAspectRatio="xMidYMid meet" height="623pt">
 <g transform="translate(0 623) scale(0.1 -0.1)" fill="#fff">
  <path d="m2869 0c-0.5 0.125-5.2 1.75-10.6 3.75-42.5 15.75-74 54.375-81 99-2.4 14.75-0.8 40.63 3.2 54.13 10.6 36.12 36.3 66 69.2 80.74 4.6 2.13 13.1 5.26 19 7.13 9.7 3 19.4 6.64 40 4.77 21.1-1.93 18.2-1.37 26.4-3.74 30-8.25 55.6-27.78 72-52.66 3.7-5.37 6.4-9.87 6.3-10-0.3-0.24-3.7 0.13-7.9 0.88-7 1.12-28.6 0.75-42.5-0.88-4.6-0.53-9.7-1.68-15-3.3 0.1-0.02 0.1-0.04 0.1-0.06-18.2-5.65-39-17.93-53.1-31.11-13.6-12.63-21.8-25.88-29.7-47.63-1.2-3.339-2.3-6.483-3.2-9.528-3.8-13.156-4.9-24.448-4.3-40.867 0.6-17.875 3.5-31.5 9.6-45.375 1.3-2.875 2-5.25 1.5-5.25z" transform="matrix(8,0,0,-8,0,6230)"/>
  <path d="m12430 4245c0-1042-4-1343-24-2103-31-1123-34-1176-72-1775-9-142-15-260-12-262 2-3 42 0 89 5 110 13 244 13 348 0 46-6 85-9 87-7 3 2-7 179-21 393-25 377-26 431-31 1684-3 712-1 1459 3 1659l8 364 285-304c157-167 325-347 374-399 185-196 266-282 656-700 74-79 169-180 211-225 41-44 109-116 150-160 40-44 142-152 225-240 173-184 293-315 559-610 104-115 234-259 289-320 594-657 661-732 935-1050 183-212 163-195 227-195h57l-8 327c-4 181-9 344-11 363s1 427 7 905c7 649 19 1096 45 1760 46 1204 72 1776 84 1863 5 40 10 84 10 98v26l-72-8c-84-8-185-8-347 2l-114 7 7-27c4-15 13-183 21-374 26-620 16-3454-13-3531-7-20-12-18-67 41-89 95-202 216-410 438-38 42-106 114-150 160-236 252-340 363-354 379-9 10-142 152-296 317-154 164-417 445-584 624-168 179-366 390-441 470s-297 318-495 530c-197 212-393 421-435 465s-141 150-221 235c-79 85-173 187-210 225-36 39-85 91-109 118l-43 47h-68-69v-1215z"/>
  <path d="m8953 5358c-23-51-140-313-261-583-121-269-522-1165-892-1990s-733-1635-807-1800-161-358-193-430-90-201-130-289c-39-87-69-160-66-163s69 0 148 7c130 11 273 9 368-6l35-6 49 149c77 234 207 600 343 958 161 428 355 928 362 936 3 4 237 12 520 19 410 9 606 9 972-1l458-13 20-45c46-109 353-868 399-986 196-508 313-823 337-905 16-52 31-98 35-102 3-4 84-2 180 4 136 9 225 9 398-1 123-7 226-11 228-8 2 2-27 69-65 149s-556 1282-1151 2672l-1082 2526h-82-83l-40-92zm55-1195c61-142 158-366 215-498 365-842 507-1172 507-1178 0-4-376-7-836-7-665 0-835 3-831 13 3 6 92 215 197 462 246 575 373 875 512 1203 61 144 114 262 118 262 3 0 56-116 118-257z"/>
  <path d="m25848 5425c-470-67-844-252-1087-537-206-242-301-530-301-914 0-297 59-514 195-724 70-108 228-261 360-349 136-90 400-221 690-342 581-242 775-357 945-562 68-82 151-241 175-336 62-244 18-565-108-791-75-135-219-293-340-373-122-81-283-141-431-162-85-12-299-7-399 9-255 41-446 139-645 330-109 105-204 219-291 349-51 77-52 77-96 77-49 0-50-1-60-90-20-174-70-404-113-531l-20-55 54-48c183-161 480-282 864-351 127-23 447-31 593-15 493 53 903 241 1197 546 215 224 354 491 420 809 30 143 38 418 16 542-36 207-137 422-289 616-73 94-198 186-447 332-118 69-391 190-725 322-480 189-719 363-847 618-44 87-77 208-86 317-30 370 91 642 378 849 103 74 233 128 377 155 122 22 356 15 468-14 217-58 415-204 554-408 41-62 121-221 121-244 0-7 15-10 42-8l41 3 34 115c48 167 111 353 149 444 19 44 33 80 31 81-1 0-25 19-52 42-164 134-392 231-665 285-137 27-552 35-702 13z"/>
  <path d="m735 5388c-3-24-21-178-41-343-19-165-50-412-69-550-19-137-109-810-200-1495-141-1060-185-1361-296-2022-71-428-129-799-129-825v-48l268-2 268-2 21 472 22 472 166 1480c91 814 166 1483 168 1487 6 17 1138-2167 1382-2667 99-203 270-553 381-779l200-411h43 43l247 515c214 447 523 1067 669 1340 45 85 71 133 504 925 130 237 315 576 413 755 97 179 178 326 179 327 1 2 35-259 75-580 62-502 88-770 190-1955 65-755 121-1375 123-1377 2-3 69 0 149 6 135 11 312 8 492-7 69-6 77-5 77 11 0 17-37 307-135 1060-71 546-114 917-300 2595-96 872-178 1602-181 1623l-6 38-51-3-52-3-128-230c-71-126-218-387-326-580-109-192-435-789-725-1325-584-1078-680-1256-818-1505-52-93-132-238-178-322s-85-151-86-150c-8 8-260 441-423 727-334 584-640 1145-891 1635-230 449-323 630-385 750-34 66-127 246-206 400-78 154-180 352-225 440l-83 160-70 3-70 3-6-43z"/>
  <path d="m17727 5113c-4-124-6-227-5-229 2-1 193 11 425 26 232 16 576 34 765 39 188 6 382 13 431 16l87 5v-203c0-111-9-969-20-1907-17-1349-26-1815-44-2230-13-289-22-527-20-529s38 2 81 8c142 22 347 25 495 7 179-21 192-21 183 2-4 9-17 190-31 402-23 378-24 413-24 1935 0 1136 4 1673 15 2010 8 253 15 468 15 478 0 16 20 17 274 17 238 0 333-5 718-40 243-21 483-44 532-50s90-9 92-8c2 2-2 37-8 78-10 77-6 351 7 383 6 15-1 17-76 17-46 0-268-7-494-15-1198-42-1901-43-2800-5-247 11-482 20-521 20h-71l-6-227z"/>
  <path d="m22593 3709c16-86 29-492 36-1100 10-900-3-1810-35-2391l-7-118 94 8c124 9 315 9 468-1l124-9-6 34c-12 64-28 559-36 1153-12 810 2 1784 35 2344l7 114-34-7c-106-23-472-23-608 0l-44 7 6-34z"/>
 </g>
</svg>
